# Exported from Wings 3D 1.4.1
mtllib zfskylight_med_vill_skydome.mtl
o cylinder1
#112 vertices, 96 faces
v 0.22885791 0.83599788 -9.4796049e-2
v 0.17516026 0.83599788 -0.17516026
v 9.4796049e-2 0.83599788 -0.22885791
v -7.5557108e-17 0.83599788 -0.24771401
v -9.4796049e-2 0.83599788 -0.22885791
v -0.17516026 0.83599788 -0.17516026
v -0.22885791 0.83599788 -9.4796049e-2
v -0.24771401 0.83599788 2.4587997e-17
v -0.22885791 0.83599788 9.4796049e-2
v -0.17516026 0.83599788 0.17516026
v -9.4796049e-2 0.83599788 0.22885791
v -1.4884673e-17 0.83599788 0.24771401
v 9.4796049e-2 0.83599788 0.22885791
v 0.17516026 0.83599788 0.17516026
v 0.22885791 0.83599788 9.4796049e-2
v 0.24771401 0.83599788 -5.7482207e-18
v -2.7755576e-17 0.87539621 8.6736174e-18
v -2.7755576e-17 0.87539621 8.6736174e-18
v -2.7755576e-17 0.87539621 8.6736174e-18
v -2.7755576e-17 0.87539621 8.6736174e-18
v -2.7755576e-17 0.87539621 8.6736174e-18
v -2.7755576e-17 0.87539621 8.6736174e-18
v -2.7755576e-17 0.87539621 8.6736174e-18
v -2.7755576e-17 0.87539621 8.6736174e-18
v -2.7755576e-17 0.87539621 8.6736174e-18
v -2.7755576e-17 0.87539621 8.6736174e-18
v -2.7755576e-17 0.87539621 8.6736174e-18
v -2.7755576e-17 0.87539621 8.6736174e-18
v -2.7755576e-17 0.87539621 8.6736174e-18
v -2.7755576e-17 0.87539621 8.6736174e-18
v -2.7755576e-17 0.87539621 8.6736174e-18
v -2.7755576e-17 0.87539621 8.6736174e-18
v 0.87172000 0.14832635 1.5368696e-17
v 0.80536427 0.14832635 0.33359280
v 0.61639912 0.14832635 0.61639912
v 0.33359280 0.14832635 0.80536427
v 8.0360038e-17 0.14832635 0.87172000
v -0.33359280 0.14832635 0.80536427
v -0.61639912 0.14832635 0.61639912
v -0.80536427 0.14832635 0.33359280
v -0.87172000 0.14832635 1.2212361e-16
v -0.80536427 0.14832635 -0.33359280
v -0.61639912 0.14832635 -0.61639912
v -0.33359280 0.14832635 -0.80536427
v -1.3314978e-16 0.14832635 -0.87172000
v 0.33359280 0.14832635 -0.80536427
v 0.61639912 0.14832635 -0.61639912
v 0.80536427 0.14832635 -0.33359280
v 0.73968109 0.48118996 1.2412775e-17
v 0.68337622 0.48118996 0.28306370
v 0.52303351 0.48118996 0.52303351
v 0.28306370 0.48118996 0.68337622
v 5.2440516e-17 0.48118996 0.73968109
v -0.28306370 0.48118996 0.68337622
v -0.52303351 0.48118996 0.52303351
v -0.68337622 0.48118996 0.28306370
v -0.73968109 0.48118996 1.0299758e-16
v -0.68337622 0.48118996 -0.28306370
v -0.52303351 0.48118996 -0.52303351
v -0.28306370 0.48118996 -0.68337622
v -1.2872910e-16 0.48118996 -0.73968109
v 0.28306370 0.48118996 -0.68337622
v 0.52303351 0.48118996 -0.52303351
v 0.68337622 0.48118996 -0.28306370
v 0.59739432 0.64762177 5.5394836e-18
v 0.55192039 0.64762177 0.22861291
v 0.42242158 0.64762177 0.42242158
v 0.22861291 0.64762177 0.55192039
v 3.0902059e-17 0.64762177 0.59739432
v -0.22861291 0.64762177 0.55192039
v -0.42242158 0.64762177 0.42242158
v -0.55192039 0.64762177 0.22861291
v -0.59739432 0.64762177 7.8699188e-17
v -0.55192039 0.64762177 -0.22861291
v -0.42242158 0.64762177 -0.42242158
v -0.22861291 0.64762177 -0.55192039
v -1.1541735e-16 0.64762177 -0.59739432
v 0.22861291 0.64762177 -0.55192039
v 0.42242158 0.64762177 -0.42242158
v 0.55192039 0.64762177 -0.22861291
v 0.76406150 0.31475816 -0.31648464
v 0.58478736 0.31475816 -0.58478736
v 0.31648464 0.31475816 -0.76406150
v -1.3201577e-16 0.31475816 -0.82701421
v -0.31648464 0.31475816 -0.76406150
v -0.58478736 0.31475816 -0.58478736
v -0.76406150 0.31475816 -0.31648464
v -0.82701421 0.31475816 1.1674276e-16
v -0.76406150 0.31475816 0.31648464
v -0.58478736 0.31475816 0.58478736
v -0.31648464 0.31475816 0.76406150
v 7.0544291e-17 0.31475816 0.82701421
v 0.31648464 0.31475816 0.76406150
v 0.58478736 0.31475816 0.58478736
v 0.76406150 0.31475816 0.31648464
v 0.82701421 0.31475816 1.5462728e-17
v 0.45465066 0.75250825 1.1807282e-18
v 0.42004244 0.75250825 0.17398728
v 0.32148657 0.75250825 0.32148657
v 0.17398728 0.75250825 0.42004244
v 9.6871533e-18 0.75250825 0.45465066
v -0.17398728 0.75250825 0.42004244
v -0.32148657 0.75250825 0.32148657
v -0.42004244 0.75250825 0.17398728
v -0.45465066 0.75250825 5.6859376e-17
v -0.42004244 0.75250825 -0.17398728
v -0.32148657 0.75250825 -0.32148657
v -0.17398728 0.75250825 -0.42004244
v -1.0167014e-16 0.75250825 -0.45465066
v 0.17398728 0.75250825 -0.42004244
v 0.32148657 0.75250825 -0.32148657
v 0.42004244 0.75250825 -0.17398728
vt 1.0628321e-16 1.3322676e-15
vt 1.1520749e-16 0.12775430
vt 1.2710890e-16 0.29812769
vt 1.4225692e-16 0.51497776
vt 1.5183406e-16 0.65207834
vt 1.6179441e-16 0.79466489
vt 3.1249770e-2 0.99999784
vt 6.2500174e-2 0.65207846
vt 6.2500174e-2 0.79466504
vt 6.2500174e-2 0.51497786
vt 6.2500174e-2 0.29812774
vt 6.2500174e-2 0.12775432
vt 6.2500174e-2 8.8817842e-16
vt 9.3749617e-2 0.99999829
vt 0.12499995 1.3322676e-15
vt 0.12499995 0.12775424
vt 0.12499995 0.29812754
vt 0.12499995 0.51497751
vt 0.12499995 0.65207802
vt 0.12499995 0.79466450
vt 0.15624971 0.99999789
vt 0.18750034 4.4408921e-16
vt 0.18750034 0.12775402
vt 0.18750034 0.29812704
vt 0.18750034 0.51497663
vt 0.18750034 0.65207691
vt 0.18750034 0.79466315
vt 0.21874988 1.00000000
vt 0.24999987 1.3322676e-15
vt 0.24999987 0.12775441
vt 0.24999987 0.29812794
vt 0.24999987 0.51497819
vt 0.24999987 0.65207889
vt 0.24999987 0.79466556
vt 0.28124982 0.99999885
vt 0.31249991 4.4408921e-16
vt 0.31249991 0.12775384
vt 0.31249991 0.29812661
vt 0.31249991 0.51497590
vt 0.31249991 0.65207599
vt 0.31249991 0.79466203
vt 0.34375018 0.99999786
vt 0.37500012 0.79466587
vt 0.37500012 1.3322676e-15
vt 0.37500012 0.12775446
vt 0.37500012 0.29812805
vt 0.37500012 0.51497839
vt 0.37500012 0.65207914
vt 0.40625008 0.99999886
vt 0.43749978 8.8817842e-16
vt 0.43749978 0.12775427
vt 0.43749978 0.29812761
vt 0.43749978 0.51497763
vt 0.43749978 0.65207817
vt 0.43749978 0.79466469
vt 0.46874990 0.99999703
vt 0.50000000 1.3322676e-15
vt 0.50000000 0.12775422
vt 0.50000000 0.29812749
vt 0.50000000 0.51497743
vt 0.50000000 0.65207791
vt 0.50000000 0.79466437
vt 0.53125010 0.99999703
vt 0.56250022 4.4408921e-16
vt 0.56250022 0.12775427
vt 0.56250022 0.29812761
vt 0.56250022 0.51497763
vt 0.56250022 0.65207817
vt 0.56250022 0.79466469
vt 0.59374992 0.99999886
vt 0.62499988 0.12775446
vt 0.62499988 0.29812805
vt 0.62499988 0.51497839
vt 0.62499988 0.65207914
vt 0.62499988 0.79466587
vt 0.62499988 1.3322676e-15
vt 0.65624982 0.99999786
vt 0.68750009 4.4408921e-16
vt 0.68750009 0.12775384
vt 0.68750009 0.29812661
vt 0.68750009 0.51497590
vt 0.68750009 0.65207599
vt 0.68750009 0.79466203
vt 0.71875018 0.99999885
vt 0.75000013 0.79466556
vt 0.75000013 1.3322676e-15
vt 0.75000013 0.12775441
vt 0.75000013 0.29812794
vt 0.75000013 0.51497819
vt 0.75000013 0.65207889
vt 0.78125012 1.00000000
vt 0.81249966 0.0000000e+0
vt 0.81249966 0.12775402
vt 0.81249966 0.29812704
vt 0.81249966 0.51497663
vt 0.81249966 0.65207691
vt 0.81249966 0.79466315
vt 0.84375029 0.99999789
vt 0.87500005 1.3322676e-15
vt 0.87500005 0.12775424
vt 0.87500005 0.29812754
vt 0.87500005 0.51497751
vt 0.87500005 0.65207802
vt 0.87500005 0.79466450
vt 0.90625038 0.99999829
vt 0.93749983 0.0000000e+0
vt 0.93749983 0.12775432
vt 0.93749983 0.29812774
vt 0.93749983 0.51497786
vt 0.93749983 0.65207846
vt 0.93749983 0.79466504
vt 0.96875023 0.99999784
vt 1.00000000 2.2204460e-15
vt 1.00000000 0.12775430
vt 1.00000000 0.29812769
vt 1.00000000 0.51497776
vt 1.00000000 0.65207834
vt 1.00000000 0.79466489
vn -0.24685067 -0.96364408 0.10224890
vn -0.18893133 -0.96364408 0.18893133
vn -0.10224890 -0.96364408 0.24685067
vn 3.4973432e-18 -0.96364408 0.26718924
vn 0.10224890 -0.96364408 0.24685067
vn 0.18893133 -0.96364408 0.18893133
vn 0.24685067 -0.96364408 0.10224890
vn 0.26718924 -0.96364408 5.0361742e-16
vn 0.24685067 -0.96364408 -0.10224890
vn 0.18893133 -0.96364408 -0.18893133
vn 0.10224890 -0.96364408 -0.24685067
vn 0.0000000e+0 -0.96364408 -0.26718924
vn -0.10224890 -0.96364408 -0.24685067
vn -0.24685067 -0.96364408 -0.10224890
vn -0.26718924 -0.96364408 2.2033262e-16
vn -0.15699678 -0.98710526 -3.1228601e-2
vn -0.15699678 -0.98710526 3.1228601e-2
vn -0.13309544 -0.98710526 -8.8931532e-2
vn -8.8931532e-2 -0.98710526 -0.13309544
vn -3.1228601e-2 -0.98710526 -0.15699678
vn 3.1228601e-2 -0.98710526 -0.15699678
vn 8.8931532e-2 -0.98710526 -0.13309544
vn 0.13309544 -0.98710526 -8.8931532e-2
vn 0.15699678 -0.98710526 -3.1228601e-2
vn 0.15699678 -0.98710526 3.1228601e-2
vn 0.13309544 -0.98710526 8.8931532e-2
vn 8.8931532e-2 -0.98710526 0.13309544
vn 3.1228601e-2 -0.98710526 0.15699678
vn -3.1228601e-2 -0.98710526 0.15699678
vn -8.8931532e-2 -0.98710526 0.13309544
vn -0.13309544 -0.98710526 8.8931532e-2
vn -0.96576531 -0.25941736 7.0657685e-17
vn -0.89225080 -0.25941736 -0.36958238
vn -0.36958238 -0.25941736 -0.89225080
vn 0.0000000e+0 -0.25941736 -0.96576531
vn 0.36958238 -0.25941736 -0.89225080
vn 0.68289920 -0.25941736 -0.68289920
vn 0.89225080 -0.25941736 -0.36958238
vn 0.96576531 -0.25941736 0.0000000e+0
vn 0.89225080 -0.25941736 0.36958238
vn 0.68289920 -0.25941736 0.68289920
vn 0.36958238 -0.25941736 0.89225080
vn 2.8263074e-17 -0.25941736 0.96576531
vn -0.36958238 -0.25941736 0.89225080
vn -0.68289920 -0.25941736 0.68289920
vn -0.89225080 -0.25941736 0.36958238
vn -0.82785816 -0.56093748 1.2736941e-16
vn -0.76484121 -0.56093748 -0.31680760
vn -0.31680760 -0.56093748 -0.76484121
vn 7.0760783e-18 -0.56093748 -0.82785816
vn 0.31680760 -0.56093748 -0.76484121
vn 0.58538412 -0.56093748 -0.58538412
vn 0.76484121 -0.56093748 -0.31680760
vn 0.82785816 -0.56093748 0.0000000e+0
vn 0.76484121 -0.56093748 0.31680760
vn 0.58538412 -0.56093748 0.58538412
vn 0.31680760 -0.56093748 0.76484121
vn 4.2456470e-17 -0.56093748 0.82785816
vn -0.31680760 -0.56093748 0.76484121
vn -0.58538412 -0.56093748 0.58538412
vn -0.76484121 -0.56093748 0.31680760
vn -0.68040691 -0.73283452 6.3438574e-17
vn -0.62861402 -0.73283452 -0.26038045
vn -0.26038045 -0.73283452 -0.62861402
vn 1.4097461e-17 -0.73283452 -0.68040691
vn 0.26038045 -0.73283452 -0.62861402
vn 0.48112034 -0.73283452 -0.48112034
vn 0.62861402 -0.73283452 -0.26038045
vn 0.68040691 -0.73283452 0.0000000e+0
vn 0.62861402 -0.73283452 0.26038045
vn 0.48112034 -0.73283452 0.48112034
vn 0.26038045 -0.73283452 0.62861402
vn 3.1719287e-17 -0.73283452 0.68040691
vn -0.26038045 -0.73283452 0.62861402
vn -0.48112034 -0.73283452 0.48112034
vn -0.62861402 -0.73283452 0.26038045
vn -0.86035609 -0.36439951 0.35637116
vn -0.65848804 -0.36439951 0.65848804
vn -0.35637116 -0.36439951 0.86035609
vn 3.5494750e-17 -0.36439951 0.93124272
vn 0.35637116 -0.36439951 0.86035609
vn 0.65848804 -0.36439951 0.65848804
vn 0.86035609 -0.36439951 0.35637116
vn 0.93124272 -0.36439951 0.0000000e+0
vn 0.86035609 -0.36439951 -0.35637116
vn 0.65848804 -0.36439951 -0.65848804
vn 0.35637116 -0.36439951 -0.86035609
vn 0.0000000e+0 -0.36439951 -0.93124272
vn -0.35637116 -0.36439951 -0.86035609
vn -0.86035609 -0.36439951 -0.35637116
vn -0.93124272 -0.36439951 1.2068215e-16
vn -0.48671782 -0.87355925 3.8650504e-17
vn -0.44966863 -0.87355925 -0.18625885
vn -0.18625885 -0.87355925 -0.44966863
vn 7.0273644e-18 -0.87355925 -0.48671782
vn 0.18625885 -0.87355925 -0.44966863
vn 0.34416147 -0.87355925 -0.34416147
vn 0.44966863 -0.87355925 -0.18625885
vn 0.48671782 -0.87355925 -1.0541047e-17
vn 0.44966863 -0.87355925 0.18625885
vn 0.34416147 -0.87355925 0.34416147
vn 0.18625885 -0.87355925 0.44966863
vn 1.4054729e-17 -0.87355925 0.48671782
vn -0.18625885 -0.87355925 0.44966863
vn -0.34416147 -0.87355925 0.34416147
vn -0.44966863 -0.87355925 0.18625885
vn -0.15113725 -0.96228598 -0.22619287
vn -0.22619287 -0.96228598 -0.15113725
vn -0.15113725 -0.96228598 -0.22619287
vn -0.22619287 -0.96228598 -0.15113725
vn -0.53723893 -0.25475920 -0.80403488
vn -0.80403488 -0.25475920 -0.53723893
vn -0.46271235 -0.55348338 -0.69249796
vn -0.69249796 -0.55348338 -0.46271235
vn -0.46271235 -0.55348338 -0.69249796
vn -0.69249796 -0.55348338 -0.46271235
vn -0.38193740 -0.72621358 -0.57160971
vn -0.57160971 -0.72621358 -0.38193740
vn -0.38193740 -0.72621358 -0.57160971
vn -0.57160971 -0.72621358 -0.38193740
vn -0.51868308 -0.35830424 -0.77626409
vn -0.77626409 -0.35830424 -0.51868308
vn -0.51868308 -0.35830424 -0.77626409
vn -0.77626409 -0.35830424 -0.51868308
vn -0.27442043 -0.86949388 -0.41069919
vn -0.41069919 -0.86949388 -0.27442043
vn -0.27442043 -0.86949388 -0.41069919
vn -0.41069919 -0.86949388 -0.27442043
g cylinder1_cylinder1_auv
usemtl cylinder1_auv
s 1
f 1/27/1 2/34/2 111/33/105 112/26/106
f 1/27/1 32/28/31 2/34/2
f 2/34/2 3/41/3 110/40/104 111/33/105
f 2/34/2 31/35/30 3/41/3
f 3/41/3 4/43/4 109/48/103 110/40/104
f 3/41/3 30/42/29 4/43/4
f 4/43/4 5/55/5 108/54/102 109/48/103
f 4/43/4 29/49/28 5/55/5
f 5/55/5 6/62/6 107/61/101 108/54/102
f 5/55/5 28/56/27 6/62/6
f 6/62/6 7/69/7 106/68/100 107/61/101
f 6/62/6 27/63/26 7/69/7
f 7/69/7 8/75/8 105/74/99 106/68/100
f 7/69/7 26/70/25 8/75/8
f 8/75/8 9/83/9 104/82/98 105/74/99
f 8/75/8 25/77/24 9/83/9
f 9/83/9 10/85/10 103/90/97 104/82/98
f 9/83/9 24/84/23 10/85/10
f 10/85/10 11/97/11 102/96/96 103/90/97
f 10/85/10 23/91/22 11/97/11
f 11/97/11 12/104/12 101/103/95 102/96/96
f 11/97/11 22/98/21 12/104/12
f 12/104/12 13/111/13 100/110/94 101/103/95
f 12/104/12 21/105/20 13/111/13
f 13/111/13 14/118/109 99/117/127 100/110/94
f 13/111/13 20/112/19 14/118/107
f 14/6/110 15/9/14 98/8/93 99/5/128
f 14/6/108 19/7/18 15/9/14
f 15/9/14 16/20/15 97/19/92 98/8/93
f 15/9/14 17/14/16 16/20/15
f 16/20/15 18/21/17 1/27/1
f 33/15/32 96/16/91 81/23/77 48/22/46
f 34/13/33 95/12/90 96/16/91 33/15/32
f 35/1/112 94/2/124 95/12/90 34/13/33
f 36/106/34 93/107/89 94/114/123 35/113/111
f 37/99/35 92/100/88 93/107/89 36/106/34
f 38/92/36 91/93/87 92/100/88 37/99/35
f 39/86/37 90/87/86 91/93/87 38/92/36
f 40/78/38 89/79/85 90/87/86 39/86/37
f 41/76/39 88/71/84 89/79/85 40/78/38
f 42/64/40 87/65/83 88/71/84 41/76/39
f 43/57/41 86/58/82 87/65/83 42/64/40
f 44/50/42 85/51/81 86/58/82 43/57/41
f 45/44/43 84/45/80 85/51/81 44/50/42
f 46/36/44 83/37/79 84/45/80 45/44/43
f 47/29/45 82/30/78 83/37/79 46/36/44
f 48/22/46 81/23/77 82/30/78 47/29/45
f 49/17/47 64/24/61 81/23/77 96/16/91
f 49/17/47 65/18/62 80/25/76 64/24/61
f 50/11/48 66/10/63 65/18/62 49/17/47
f 51/3/116 67/4/118 66/10/63 50/11/48
f 52/108/49 68/109/64 67/116/117 51/115/115
f 53/101/50 69/102/65 68/109/64 52/108/49
f 54/94/51 70/95/66 69/102/65 53/101/50
f 55/88/52 71/89/67 70/95/66 54/94/51
f 56/80/53 72/81/68 71/89/67 55/88/52
f 57/72/54 73/73/69 72/81/68 56/80/53
f 58/66/55 74/67/70 73/73/69 57/72/54
f 59/59/56 75/60/71 74/67/70 58/66/55
f 60/52/57 76/53/72 75/60/71 59/59/56
f 61/46/58 77/47/73 76/53/72 60/52/57
f 62/38/59 78/39/74 77/47/73 61/46/58
f 63/31/60 79/32/75 78/39/74 62/38/59
f 64/24/61 80/25/76 79/32/75 63/31/60
f 65/18/62 97/19/92 112/26/106 80/25/76
f 66/10/63 98/8/93 97/19/92 65/18/62
f 67/4/120 99/5/126 98/8/93 66/10/63
f 68/109/64 100/110/94 99/117/125 67/116/119
f 69/102/65 101/103/95 100/110/94 68/109/64
f 70/95/66 102/96/96 101/103/95 69/102/65
f 71/89/67 103/90/97 102/96/96 70/95/66
f 72/81/68 104/82/98 103/90/97 71/89/67
f 73/73/69 105/74/99 104/82/98 72/81/68
f 74/67/70 106/68/100 105/74/99 73/73/69
f 75/60/71 107/61/101 106/68/100 74/67/70
f 76/53/72 108/54/102 107/61/101 75/60/71
f 77/47/73 109/48/103 108/54/102 76/53/72
f 78/39/74 110/40/104 109/48/103 77/47/73
f 79/32/75 111/33/105 110/40/104 78/39/74
f 80/25/76 112/26/106 111/33/105 79/32/75
f 82/30/78 81/23/77 64/24/61 63/31/60
f 83/37/79 82/30/78 63/31/60 62/38/59
f 84/45/80 83/37/79 62/38/59 61/46/58
f 85/51/81 84/45/80 61/46/58 60/52/57
f 86/58/82 85/51/81 60/52/57 59/59/56
f 87/65/83 86/58/82 59/59/56 58/66/55
f 88/71/84 87/65/83 58/66/55 57/72/54
f 89/79/85 88/71/84 57/72/54 56/80/53
f 90/87/86 89/79/85 56/80/53 55/88/52
f 91/93/87 90/87/86 55/88/52 54/94/51
f 92/100/88 91/93/87 54/94/51 53/101/50
f 93/107/89 92/100/88 53/101/50 52/108/49
f 94/114/121 93/107/89 52/108/49 51/115/113
f 95/12/90 94/2/122 51/3/114 50/11/48
f 96/16/91 95/12/90 50/11/48 49/17/47
f 112/26/106 97/19/92 16/20/15 1/27/1
